<svg viewBox="0 0 512 512" xmlns="http://www.w3.org/2000/svg" xmlns:xlink="http://www.w3.org/1999/xlink"><linearGradient id="a" gradientTransform="matrix(1 0 0 -1 0 -18718)" gradientUnits="userSpaceOnUse" x1="0" x2="512" y1="-18974" y2="-18974"><stop offset="0" stop-color="#00f1ff"/><stop offset=".231" stop-color="#00d8ff"/><stop offset=".5138" stop-color="#00c0ff"/><stop offset=".7773" stop-color="#00b2ff"/><stop offset="1" stop-color="#00adff"/></linearGradient><path d="m512 256c0 141.386719-114.613281 256-256 256s-256-114.613281-256-256 114.613281-256 256-256 256 114.613281 256 256zm0 0" fill="url(#a)"/><g fill="#fff"><path d="m416.804688 172.988281v-10.804687c0-58.550782-47.632813-106.183594-106.183594-106.183594-25.496094 0-50.148438 9.171875-69.414063 25.828125-12.9375 11.1875-22.902343 25.246094-29.171875 40.875-9.796875-5.140625-20.785156-7.910156-32.074218-7.910156-38.09375 0-69.089844 30.992187-69.089844 69.089843v14.800782c-31.335938 6.769531-54.871094 34.46875-54.871094 67.507812 0 18.457032 6.984375 35.765625 19.671875 48.734375 12.835937 13.125 30.109375 20.351563 48.632813 20.351563 8.285156 0 15-6.714844 15-15 0-8.28125-6.714844-15-15-15-21.480469 0-38.304688-17.167969-38.304688-39.085938 0-21.554687 17.832031-39.089844 39.753906-39.089844h.117188c8.285156 0 15-6.714843 15-15v-28.21875c0-21.554687 17.535156-39.09375 39.089844-39.09375 11.195312 0 21.882812 4.828126 29.3125 13.246094 3.847656 4.363282 9.871093 6.105469 15.457031 4.46875 5.585937-1.632812 9.71875-6.347656 10.609375-12.097656 5.6875-36.71875 38.054687-64.40625 75.28125-64.40625 42.007812 0 76.183594 34.175781 76.183594 76.183594v19.285156c0 5.550781 3.066406 10.644531 7.96875 13.25 19.261718 10.21875 31.226562 30.097656 31.226562 51.875 0 25.539062-16.304688 47.980469-40.574219 55.84375-7.882812 2.550781-12.199219 11.011719-9.648437 18.890625 2.554687 7.882813 11.015625 12.203125 18.894531 9.648437 36.683594-11.886718 61.328125-45.796874 61.328125-84.382812 0-29.785156-14.808594-57.21875-39.195312-73.605469zm0 0"/><path d="m193.394531 327.335938c0-34.363282 27.484375-62.402344 61.625-63.347657l-14.328125 14.328125c-5.859375 5.859375-5.859375 15.355469 0 21.214844 2.929688 2.929688 6.769532 4.394531 10.605469 4.394531 3.839844 0 7.679687-1.464843 10.605469-4.394531l36.84375-36.84375c5.859375-5.859375 5.859375-15.355469 0-21.214844l-36.84375-36.84375c-5.855469-5.855468-15.355469-5.855468-21.210938 0-5.859375 5.859375-5.859375 15.355469 0 21.214844l8.417969 8.417969c-47.917969 3.917969-85.714844 44.160156-85.714844 93.074219 0 11.984374 2.304688 23.664062 6.851563 34.710937 2.386718 5.792969 7.980468 9.296875 13.878906 9.296875 1.898438 0 3.835938-.367188 5.703125-1.132812 7.660156-3.15625 11.3125-11.921876 8.160156-19.582032-3.089843-7.511718-4.59375-15.132812-4.59375-23.292968zm0 0"/><path d="m323.203125 281.347656c-7.644531 3.1875-11.265625 11.96875-8.078125 19.617188 3.304688 7.929687 5.050781 17.046875 5.050781 26.371094 0 34.953124-28.4375 63.390624-63.390625 63.390624-.824218 0-1.625.082032-2.410156.210938l13.015625-13.015625c5.859375-5.859375 5.859375-15.355469 0-21.214844-5.855469-5.855469-15.355469-5.855469-21.210937 0l-36.84375 36.84375c-2.816407 2.8125-4.394532 6.628907-4.394532 10.605469 0 3.980469 1.578125 7.792969 4.394532 10.605469l36.84375 36.84375c2.925781 2.929687 6.765624 4.394531 10.605468 4.394531 3.835938 0 7.675782-1.464844 10.605469-4.394531 5.855469-5.859375 5.855469-15.355469 0-21.210938l-9.679687-9.683593c51.066406-.496094 92.460937-42.191407 92.460937-93.375 0-13.246094-2.542969-26.355469-7.355469-37.910157-3.183594-7.644531-11.964844-11.265625-19.613281-8.078125zm-82.050781 122.808594.84375-.839844c-.082032.496094-.136719 1.003906-.167969 1.515625zm0 0"/></g></svg>